<svg width="48" height="48" viewBox="0 0 48 48" fill="none" xmlns="http://www.w3.org/2000/svg">
<g clip-path="url(#clip0)">
<path d="M46.8741 16.5H41.2613L39.7013 12.6C38.0981 8.59031 34.2722 6 29.9531 6H18.0469C13.7288 6 9.9019 8.59031 8.29784 12.6L6.73784 16.5H1.12596C0.393775 16.5 -0.143412 17.1881 0.0347128 17.8978L0.597213 20.1478C0.7219 20.6484 1.1719 21 1.68846 21H3.57003C2.31096 22.0997 1.50003 23.6981 1.50003 25.5V30C1.50003 31.5113 2.07753 32.8753 3.00002 33.9309V39C3.00002 40.6566 4.34346 42 6.00002 42H9.00002C10.6566 42 12 40.6566 12 39V36H36V39C36 40.6566 37.3435 42 39 42H42C43.6566 42 45 40.6566 45 39V33.9309C45.9225 32.8762 46.5 31.5122 46.5 30V25.5C46.5 23.6981 45.6891 22.0997 44.431 21H46.3125C46.8291 21 47.2791 20.6484 47.4038 20.1478L47.9663 17.8978C48.1435 17.1881 47.6063 16.5 46.8741 16.5ZM13.8685 14.8284C14.5519 13.1203 16.2066 12 18.0469 12H29.9531C31.7935 12 33.4481 13.1203 34.1316 14.8284L36 19.5H12L13.8685 14.8284ZM9.00002 29.9812C7.20002 29.9812 6.00002 28.785 6.00002 26.9906C6.00002 25.1962 7.20002 24 9.00002 24C10.8 24 13.5 26.6916 13.5 28.4859C13.5 30.2803 10.8 29.9812 9.00002 29.9812ZM39 29.9812C37.2 29.9812 34.5 30.2803 34.5 28.4859C34.5 26.6916 37.2 24 39 24C40.8 24 42 25.1962 42 26.9906C42 28.785 40.8 29.9812 39 29.9812V29.9812Z" fill="#767676"/>
</g>
<defs>
<clipPath id="clip0">
<rect width="48" height="48" fill="white"/>
</clipPath>
</defs>
</svg>
