<svg width="29" height="22" viewBox="0 0 29 22" fill="none" xmlns="http://www.w3.org/2000/svg">
<path d="M11.8339 2.27254L0 10.5454L11.8339 18.8183C13.9295 20.2926 16.4281 21.0861 18.9903 21.0909C23.0825 21.0387 26.7151 18.4594 28.1135 14.6133L28.2973 14.1309C29.1793 11.81 29.2326 9.25567 28.4483 6.90001C27.1684 2.84076 23.43 0.0594004 19.1742 0L18.9903 0C16.4281 0.0047784 13.9295 0.79824 11.8339 2.27254Z" fill="url(#paint0_linear)"/>
<path d="M13.5607 10.5454C13.5607 13.6486 16.0763 16.1642 19.1795 16.1642C22.2826 16.1642 24.7982 13.6486 24.7982 10.5454C24.7982 7.44229 22.2826 4.9267 19.1795 4.9267C16.0763 4.9267 13.5607 7.44229 13.5607 10.5454Z" fill="#F2F2F2"/>
<defs>
<linearGradient id="paint0_linear" x1="29" y1="10.5454" x2="0" y2="10.5454" gradientUnits="userSpaceOnUse">
<stop stop-color="#758BFD"/>
<stop offset="0.927083" stop-color="#758BFD" stop-opacity="0.84"/>
<stop offset="1" stop-color="#758BFD" stop-opacity="0"/>
</linearGradient>
</defs>
</svg>
