<svg width="61" height="61" viewBox="0 0 61 61" fill="none" xmlns="http://www.w3.org/2000/svg">
<path d="M33.9569 43.9635C41.5477 44.4353 47.3066 46.7283 47.3066 49.4846C47.3066 52.5831 40.0305 55.0949 31.0548 55.0949C22.0792 55.0949 14.803 52.5831 14.803 49.4846C14.803 46.7283 20.5619 44.4353 28.1527 43.9635" fill="#F9B200"/>
<path d="M17.2988 27.3922L30.5 46.2759L43.7012 27.3922C46.0538 24.0483 47.32 20.0612 47.3276 15.9726C47.2444 9.44277 43.1286 3.64607 36.9913 1.41471L36.2214 1.12128C32.5179 -0.286057 28.4419 -0.371114 24.683 0.880435C18.2055 2.92275 13.7673 8.88811 13.6725 15.6792V15.9726C13.6801 20.0612 14.9463 24.0483 17.2988 27.3922Z" fill="#767676"/>
<path d="M30.5001 24.6367C35.4519 24.6367 39.466 20.6225 39.466 15.6708C39.466 10.719 35.4519 6.70486 30.5001 6.70486C25.5484 6.70486 21.5342 10.719 21.5342 15.6708C21.5342 20.6225 25.5484 24.6367 30.5001 24.6367Z" fill="#F2F2F2"/>
</svg>
