<svg width="61" height="61" viewBox="0 0 61 61" fill="none" xmlns="http://www.w3.org/2000/svg">
<path d="M32.9569 40.9635C40.5477 41.4353 46.3066 43.7283 46.3066 46.4846C46.3066 49.5831 39.0305 52.0949 30.0548 52.0949C21.0792 52.0949 13.803 49.5831 13.803 46.4846C13.803 43.7283 19.5619 41.4353 27.1527 40.9635" fill="#FF8600"/>
<path d="M17.2988 27.3922L30.5 46.2759L43.7012 27.3922C46.0538 24.0483 47.32 20.0612 47.3276 15.9726C47.2444 9.44277 43.1286 3.64607 36.9913 1.41471L36.2214 1.12128C32.5179 -0.286056 28.4419 -0.371115 24.683 0.880435C18.2055 2.92275 13.7673 8.88811 13.6725 15.6792V15.9726C13.6801 20.0612 14.9463 24.0483 17.2988 27.3922Z" fill="url(#paint0_linear)"/>
<path d="M30.5001 24.6367C35.4519 24.6367 39.466 20.6225 39.466 15.6708C39.466 10.719 35.4519 6.70486 30.5001 6.70486C25.5484 6.70486 21.5342 10.719 21.5342 15.6708C21.5342 20.6225 25.5484 24.6367 30.5001 24.6367Z" fill="#F2F2F2"/>
<defs>
<linearGradient id="paint0_linear" x1="30.5" y1="3.05176e-05" x2="30.5" y2="46.2759" gradientUnits="userSpaceOnUse">
<stop stop-color="#758BFD"/>
<stop offset="0.927083" stop-color="#758BFD" stop-opacity="0.84"/>
<stop offset="1" stop-color="#758BFD" stop-opacity="0"/>
</linearGradient>
</defs>
</svg>
