<svg width="43" height="45" viewBox="0 0 43 45" fill="none" xmlns="http://www.w3.org/2000/svg">
<path d="M0 22.5C0 34.541 9.62298 44.2969 21.5 44.2969C33.377 44.2969 43 34.541 43 22.5C43 10.459 33.377 0.703125 21.5 0.703125C9.62298 0.703125 0 10.459 0 22.5ZM17.3387 18.2812C17.3387 19.8369 16.099 21.0938 14.5645 21.0938C13.03 21.0938 11.7903 19.8369 11.7903 18.2812C11.7903 16.7256 13.03 15.4688 14.5645 15.4688C16.099 15.4688 17.3387 16.7256 17.3387 18.2812ZM31.0796 19.7314C29.7966 18.5713 27.0744 18.5713 25.7913 19.7314L24.9677 20.4785C24.2482 21.1289 23.0952 20.5137 23.2512 19.5293C23.598 17.3145 26.2161 15.8291 28.4442 15.8291C30.6722 15.8291 33.2903 17.3145 33.6371 19.5293C33.7845 20.5049 32.6488 21.1377 31.9206 20.4785L31.0796 19.7314ZM13.6802 28.6348C15.6222 30.999 18.4657 32.3438 21.5 32.3438C24.5343 32.3438 27.3778 30.9902 29.3198 28.6348C30.4988 27.2109 32.6228 29.0039 31.4524 30.4365C28.9817 33.4336 25.3579 35.1562 21.5 35.1562C17.6421 35.1562 14.0183 33.4336 11.5476 30.4277C10.3772 28.9951 12.5185 27.2021 13.6802 28.6348Z" fill="#758BFD"/>
</svg>
